<svg width="24" height="24" viewBox="0 0 24 24" fill="none" xmlns="http://www.w3.org/2000/svg">
<g clip-path="url(#clip0_218_7121)">
<path d="M19.7898 18.6143C20.1002 18.8824 19.854 19.3884 19.4515 19.3096L11.3032 18.0175C11.067 17.9713 10.9249 17.7285 11 17.5L12.404 12.4747L19.7898 18.6143Z" fill="#0D5BFE"/>
<path d="M10.2717 21.4519C10.1913 21.8541 9.6297 21.8891 9.5 21.5L6.0207 13.5C5.9446 13.2717 6.0858 13.0284 6.3217 12.9812L11.5207 12L10.2717 21.4519Z" fill="#0D5BFE"/>
<path d="M2.43347 14.1702C2.04385 14.2983 1.73673 13.8268 2.01145 13.5223L7.48389 6.94998C7.64508 6.77129 7.92636 6.77432 8.08365 6.95636L11.4987 10.9974L2.43347 14.1702Z" fill="#0D5BFE"/>
<path d="M5.13354 4.15836C4.83008 3.88243 5.0891 3.3829 5.48946 3.47195L13.9048 4.99667C14.1397 5.04891 14.2756 5.29519 14.1947 5.52175L12.3603 10.4843L5.13354 4.15836Z" fill="#0D5BFE"/>
<path d="M15.1763 1.57608C15.267 1.17607 15.8293 1.1554 15.949 1.54768L18.7677 9.62219C18.8379 9.85236 18.6906 10.092 18.4536 10.1331L13.2312 10.9814L15.1763 1.57608Z" fill="#0D5BFE"/>
<path d="M22.3709 9.04369C22.7636 8.9255 23.0586 9.40467 22.7762 9.70211L17.5 16C17.3343 16.1745 17.0532 16.1643 16.9006 15.9783L13.2277 11.9842L22.3709 9.04369Z" fill="#0D5BFE"/>
</g>
<defs>
<clipPath id="clip0_218_7121">
<rect width="24" height="24" fill="white"/>
</clipPath>
</defs>
</svg>
